<svg width="210" height="60" viewBox="0 0 210 60" fill="none" xmlns="http://www.w3.org/2000/svg">
<mask id="mask0" mask-type="alpha" maskUnits="userSpaceOnUse" x="0" y="0" width="210" height="60">
<rect width="210" height="60" fill="white"/>
</mask>
<g mask="url(#mask0)">
<path d="M204.054 81.9593C205.599 80.5066 206.462 78.909 205.978 78.3951C205.708 78.1052 205.072 78.2172 204.291 78.629C203.645 78.9683 202.855 78.8991 202.295 78.428C201.672 77.9043 201.066 77.3311 200.483 76.7085C199.719 75.8948 199.037 75.045 198.441 74.172C198.174 73.7833 198.21 73.2595 198.523 72.9071C198.526 72.9038 198.53 72.8972 198.533 72.8939C198.879 72.5085 199.455 72.4327 199.884 72.7226C200.177 72.9235 200.47 73.1377 200.76 73.3617C201.307 73.7866 201.817 74.2346 202.292 74.6991C202.723 75.124 202.852 75.7631 202.621 76.3231C202.348 76.9885 202.305 77.5188 202.562 77.7165C203.02 78.0723 204.255 77.2454 205.322 75.8718C206.389 74.4981 206.884 73.0948 206.426 72.7391C206.169 72.5414 205.668 72.7127 205.092 73.141C204.607 73.5033 203.952 73.5396 203.435 73.2266C202.868 72.884 202.308 72.4986 201.761 72.0737C201.755 72.0704 201.751 72.0638 201.745 72.0605C200.839 71.3555 200.556 70.1137 201.033 69.0661C201.125 68.8619 201.214 68.6544 201.3 68.4468C201.702 67.4487 202.703 66.8195 203.774 66.9019C204.453 66.9546 205.141 67.0403 205.833 67.1588C206.666 67.3038 207.473 67.4948 208.247 67.7254C208.956 67.9363 209.456 68.5523 209.529 69.2868C209.614 70.1631 209.871 70.756 210.26 70.8219C210.958 70.9438 211.818 69.3461 212.181 67.2577C212.546 65.1659 212.276 63.3739 211.578 63.252C211.186 63.1828 210.744 63.6539 210.369 64.4511C210.053 65.1165 209.371 65.5283 208.636 65.4887C207.829 65.4426 207.002 65.3504 206.172 65.2054C205.266 65.0473 204.393 64.8365 203.557 64.5795C202.861 64.3654 202.397 63.7165 202.41 62.9918C202.41 62.9819 202.41 62.972 202.41 62.9621C202.43 61.7532 203.257 60.7123 204.423 60.396C204.489 60.3796 204.551 60.3631 204.617 60.3433C205.286 60.172 205.955 60.0403 206.61 59.948C207.21 59.8657 207.796 60.1588 208.096 60.6826C208.455 61.3085 208.847 61.6643 209.163 61.5819C209.723 61.437 209.829 59.9546 209.394 58.268C208.959 56.5847 208.152 55.3363 207.592 55.4812C207.279 55.5636 207.108 56.0643 207.094 56.7857C207.085 57.3918 206.712 57.9287 206.149 58.1461C205.53 58.3833 204.884 58.5941 204.212 58.7654C204.205 58.7687 204.196 58.7687 204.189 58.772C203.036 59.0685 201.85 58.436 201.429 57.3259C201.422 57.3094 201.415 57.2963 201.412 57.2798C201.043 56.3146 201.353 55.221 202.173 54.5951C202.693 54.1998 203.24 53.8177 203.813 53.4586C204.535 53.0073 205.266 52.6087 206.004 52.2595C206.666 51.9466 207.447 52.0784 207.984 52.5725C208.633 53.1654 209.219 53.4355 209.555 53.228C210.155 52.8525 209.73 51.0901 208.603 49.2915C207.477 47.493 206.08 46.3367 205.48 46.7123C205.144 46.9231 205.131 47.5687 205.381 48.412C205.589 49.1137 205.368 49.8746 204.798 50.3292C204.163 50.8398 203.481 51.324 202.759 51.7753C202.15 52.1574 201.534 52.5 200.911 52.8097C200.042 53.2412 198.991 53.0435 198.332 52.332C198.325 52.3254 198.316 52.3155 198.309 52.309C197.601 51.548 197.532 50.3852 198.148 49.5485C198.21 49.4661 198.273 49.3805 198.335 49.2981C198.754 48.748 199.198 48.2341 199.66 47.7565C200.078 47.3217 200.72 47.1899 201.28 47.4139C201.949 47.6807 202.476 47.7203 202.674 47.46C203.026 46.9988 202.189 45.7701 200.806 44.716C199.422 43.6619 198.016 43.181 197.663 43.6421C197.466 43.8991 197.644 44.3998 198.078 44.973C198.444 45.4539 198.487 46.1061 198.177 46.6266C197.838 47.1965 197.459 47.7598 197.041 48.3099C196.955 48.4219 196.869 48.5339 196.781 48.6426C196.161 49.4167 195.081 49.6374 194.198 49.1795C194.188 49.173 194.178 49.1697 194.168 49.1631C193.253 48.6887 192.841 47.605 193.183 46.6332C193.384 46.0633 193.615 45.4934 193.872 44.9268C194.221 44.156 194.606 43.4214 195.025 42.7297C195.404 42.0972 196.128 41.7678 196.856 41.8798C197.726 42.0148 198.365 41.916 198.526 41.5537C198.82 40.908 197.489 39.676 195.555 38.8031C193.625 37.9268 191.82 37.7391 191.53 38.3814C191.365 38.7438 191.711 39.2873 192.386 39.8506C192.953 40.3217 193.18 41.0859 192.956 41.7876C192.709 42.5584 192.413 43.3325 192.063 44.1033C191.681 44.9499 191.253 45.7504 190.789 46.5047C190.347 47.2228 189.527 47.605 188.69 47.5193C188.245 47.4732 187.801 47.4468 187.353 47.4403C186.341 47.4238 185.472 46.7057 185.264 45.7174C185.264 45.7108 185.261 45.7043 185.261 45.6977C185.119 45.0191 185.017 44.3471 184.958 43.6883C184.902 43.0854 185.221 42.5156 185.758 42.2356C186.397 41.9028 186.773 41.5273 186.704 41.2111C186.585 40.6445 185.106 40.4732 183.406 40.8323C181.703 41.1913 180.422 41.9424 180.541 42.509C180.606 42.8252 181.101 43.0196 181.819 43.0657C182.421 43.1052 182.945 43.4972 183.136 44.0737C183.347 44.7028 183.525 45.3584 183.667 46.0337C183.667 46.0403 183.67 46.0468 183.67 46.0501C183.861 46.9692 183.327 47.885 182.435 48.1748C182.076 48.2901 181.717 48.4219 181.361 48.5668C180.6 48.8798 179.72 48.6459 179.216 47.9937C178.785 47.437 178.37 46.8473 177.984 46.2247C177.533 45.5033 177.134 44.772 176.785 44.0341C176.472 43.372 176.604 42.5913 177.098 42.0544C177.691 41.4054 177.961 40.8191 177.754 40.4831C177.378 39.8836 175.616 40.3085 173.817 41.4351C172.019 42.5617 170.862 43.9584 171.238 44.5579C171.449 44.8939 172.094 44.9071 172.938 44.6567C173.639 44.4492 174.4 44.6699 174.855 45.2398C175.365 45.8756 175.85 46.5574 176.301 47.2788C176.65 47.8388 176.97 48.4054 177.26 48.9753C177.681 49.812 177.493 50.8266 176.802 51.4591C176.795 51.4657 176.785 51.4723 176.779 51.4821C176.011 52.1871 174.842 52.2167 174.038 51.5546C174.005 51.5283 173.975 51.5019 173.942 51.4755C173.412 51.0308 172.918 50.5664 172.46 50.0854C172.045 49.6473 171.94 49.0017 172.19 48.4483C172.49 47.7927 172.549 47.2657 172.299 47.0581C171.854 46.6859 170.589 47.4666 169.472 48.8007C168.356 50.1348 167.812 51.5184 168.257 51.8906C168.507 52.0981 169.011 51.9466 169.607 51.5348C170.105 51.1923 170.76 51.1791 171.264 51.5118C171.818 51.8741 172.365 52.2793 172.895 52.724C172.901 52.7273 172.905 52.7339 172.911 52.7372C173.794 53.4784 174.045 54.7367 173.521 55.7645C173.264 56.2652 173.037 56.7791 172.839 57.3061C172.503 58.1955 171.683 58.8181 170.737 58.8972C169.947 58.9664 169.133 58.9894 168.306 58.9664C167.463 58.9433 166.636 58.8708 165.832 58.7555C165.101 58.6501 164.518 58.1099 164.34 57.3951C164.129 56.5419 163.79 55.9918 163.395 55.9819C162.686 55.9621 162.064 57.6652 162.005 59.7866C161.945 61.908 162.472 63.644 163.177 63.6638C163.573 63.6737 163.941 63.1433 164.202 62.3033C164.419 61.5984 165.032 61.0911 165.766 61.0285C166.573 60.956 167.4 60.9297 168.247 60.956C168.837 60.9725 169.416 61.012 169.986 61.0746C171.024 61.1866 171.824 62.0464 171.847 63.0906C171.847 63.1005 171.847 63.1137 171.847 63.1236C171.874 64.1217 171.195 65.0012 170.22 65.2186C170.115 65.2417 170.009 65.2647 169.904 65.2845C169.225 65.4195 168.553 65.5151 167.891 65.5711C167.288 65.6205 166.718 65.2977 166.445 64.7574C166.119 64.1151 165.747 63.7363 165.427 63.8021C164.857 63.9174 164.676 65.3932 165.019 67.0963C165.361 68.8026 166.102 70.0906 166.669 69.9786C166.989 69.916 167.186 69.4219 167.236 68.7038C167.278 68.101 167.677 67.5838 168.253 67.396C168.883 67.1918 169.541 67.0172 170.22 66.8821C170.273 66.8723 170.325 66.8624 170.378 66.8525C171.426 66.6516 172.47 67.2214 172.855 68.2163C172.859 68.2261 172.862 68.236 172.869 68.2459C173.224 69.165 172.941 70.2092 172.157 70.8054C171.637 71.2007 171.09 71.5828 170.513 71.9419C169.792 72.3932 169.057 72.7918 168.323 73.141C167.661 73.4539 166.88 73.3221 166.343 72.828C165.694 72.2351 165.108 71.965 164.772 72.1725C164.172 72.548 164.597 74.3104 165.724 76.109C166.85 77.9076 168.247 79.0638 168.846 78.6883C169.182 78.4774 169.196 77.8318 168.945 76.9885C168.738 76.2868 168.958 75.5259 169.528 75.0713C170.164 74.5607 170.846 74.0765 171.567 73.6252C172.137 73.2694 172.714 72.9466 173.29 72.6534C174.183 72.2054 175.257 72.4163 175.939 73.1475C175.988 73.2035 176.041 73.2563 176.09 73.309C176.877 74.1325 176.917 75.4205 176.179 76.2901C176.176 76.2967 176.169 76.3 176.166 76.3066C175.718 76.8337 175.247 77.3245 174.763 77.7758C174.321 78.1875 173.672 78.2864 173.125 78.0294C172.47 77.7264 171.946 77.6605 171.735 77.9075C171.36 78.349 172.127 79.6205 173.452 80.7504C174.776 81.8803 176.156 82.4337 176.532 81.9923C176.742 81.7452 176.594 81.2379 176.189 80.6384C175.85 80.1377 175.843 79.4821 176.179 78.9814C176.548 78.4313 176.957 77.8878 177.405 77.3607C177.536 77.2059 177.671 77.0544 177.806 76.9061C178.455 76.1946 179.496 76.0101 180.363 76.4351C180.376 76.4417 180.386 76.445 180.399 76.4515C181.275 76.8798 181.766 77.8318 181.591 78.7904C181.466 79.4821 181.301 80.1838 181.101 80.8854C180.867 81.6991 180.59 82.4798 180.277 83.2275C179.994 83.9061 179.325 84.341 178.587 84.3311C177.708 84.3212 177.092 84.5123 176.98 84.8944C176.785 85.573 178.277 86.6007 180.317 87.1871C182.356 87.7734 184.167 87.701 184.362 87.0191C184.47 86.637 184.052 86.1494 183.301 85.6883C182.672 85.3028 182.336 84.5814 182.458 83.8534C182.589 83.0563 182.774 82.2459 183.008 81.4323C183.169 80.869 183.35 80.3221 183.551 79.7918C183.98 78.6553 185.1 77.9174 186.315 77.9833C186.641 77.9998 186.967 78.0064 187.293 78.0031C188.575 77.9899 189.708 78.853 190.018 80.0981C190.021 80.1047 190.021 80.1146 190.024 80.1212C190.192 80.7932 190.317 81.4619 190.4 82.1174C190.476 82.717 190.179 83.3 189.652 83.5965C189.023 83.9523 188.664 84.341 188.743 84.6539C188.881 85.2172 190.364 85.3325 192.053 84.9141C193.743 84.4958 194.998 83.6986 194.857 83.1353C194.778 82.8191 194.28 82.6445 193.559 82.6247C192.953 82.6083 192.419 82.2327 192.205 81.6661C191.971 81.0468 191.77 80.3979 191.602 79.7259C191.599 79.7193 191.599 79.7094 191.596 79.7028C191.296 78.4939 191.902 77.2388 193.032 76.7151C193.493 76.501 193.957 76.2704 194.373 76.0596C195.318 75.5753 196.461 75.7137 197.271 76.4021C197.874 76.9127 198.457 77.4694 199.021 78.069C199.6 78.685 200.131 79.3207 200.612 79.973C201.05 80.5659 201.079 81.3598 200.697 81.989C200.239 82.74 200.088 83.3692 200.361 83.6558C200.862 84.173 202.506 83.412 204.054 81.9593Z" fill="#9489D6"/>
<path d="M208.837 51.7621C208.57 51.9301 207.826 51.2219 207.173 50.1809C206.521 49.14 206.212 48.1617 206.478 47.9937C206.745 47.8257 207.49 48.5339 208.142 49.5748C208.794 50.6158 209.107 51.5974 208.837 51.7621Z" fill="#DAD4FF"/>
<path d="M198.727 58.2943C198.009 58.7423 196.856 58.1988 196.155 57.0755C195.453 55.9522 195.466 54.6807 196.184 54.2294C196.902 53.7814 198.055 54.3249 198.757 55.4482C199.459 56.5715 199.445 57.843 198.727 58.2943ZM177.935 68.4731C177.233 67.3498 176.08 66.8063 175.362 67.2543C174.644 67.7023 174.631 68.9771 175.333 70.1004C176.034 71.2237 177.187 71.7673 177.905 71.3193C178.623 70.868 178.637 69.5931 177.935 68.4731ZM192.544 59.6021C191.813 60.6265 190.347 60.8374 189.27 60.0698C188.193 59.3023 187.913 57.8463 188.641 56.8218C189.372 55.7974 190.838 55.5865 191.915 56.3541C192.996 57.1216 193.276 58.5743 192.544 59.6021ZM185.913 68.908C185.182 69.9324 183.716 70.1433 182.639 69.3757C181.562 68.6082 181.282 67.1522 182.01 66.1277C182.741 65.1033 184.207 64.8924 185.284 65.66C186.361 66.4308 186.645 67.8835 185.913 68.908ZM190.541 68.1338C189.517 67.4025 189.306 65.9367 190.074 64.8595C190.841 63.7823 192.297 63.5023 193.322 64.2303C194.346 64.9616 194.557 66.4275 193.789 67.5047C193.022 68.5818 191.566 68.8651 190.541 68.1338ZM181.232 61.4995C180.208 60.7682 179.997 59.3023 180.765 58.2251C181.532 57.148 182.988 56.868 184.013 57.596C185.037 58.3273 185.248 59.7931 184.48 60.8703C183.713 61.9508 182.26 62.2308 181.232 61.4995ZM182.563 51.0934C183.011 51.8115 182.468 52.9644 181.344 53.6661C180.221 54.3677 178.949 54.3545 178.498 53.6364C178.05 52.9183 178.594 51.7654 179.717 51.0637C180.84 50.3588 182.115 50.372 182.563 51.0934ZM192.742 71.8825C191.619 72.5842 191.075 73.7371 191.523 74.4553C191.971 75.1734 193.246 75.1865 194.369 74.4849C195.493 73.7833 196.036 72.6303 195.588 71.9122C195.14 71.1974 193.865 71.1809 192.742 71.8825ZM192.136 51.3437C191.945 52.1705 190.746 52.5988 189.458 52.3023C188.17 52.0058 187.277 51.0934 187.468 50.2698C187.659 49.443 188.858 49.0148 190.146 49.3113C191.437 49.6077 192.327 50.5202 192.136 51.3437ZM184.632 73.2463C183.344 72.9498 182.141 73.3781 181.954 74.2049C181.763 75.0317 182.655 75.9409 183.943 76.2374C185.231 76.5338 186.434 76.1056 186.621 75.2788C186.813 74.452 185.92 73.5428 184.632 73.2463ZM175.616 57.6816C176.443 57.8727 176.871 59.0717 176.574 60.3597C176.278 61.6477 175.365 62.5404 174.542 62.3494C173.715 62.1583 173.287 60.9593 173.583 59.6713C173.88 58.3833 174.789 57.4905 175.616 57.6816ZM197.515 65.1856C197.219 66.4736 197.647 67.676 198.474 67.8637C199.301 68.0548 200.21 67.1621 200.506 65.8741C200.803 64.5861 200.374 63.3837 199.548 63.196C198.724 63.0049 197.812 63.8976 197.515 65.1856Z" fill="#DAD4FF"/>
<path d="M174.703 42.8639C175.743 42.2136 176.45 41.4702 176.283 41.2033C176.116 40.9365 175.138 41.2473 174.099 41.8976C173.059 42.5478 172.352 43.2913 172.519 43.5581C172.686 43.8249 173.664 43.5141 174.703 42.8639Z" fill="#DAD4FF"/>
<path d="M197.123 40.7286C197.253 40.4419 196.453 39.7993 195.336 39.2934C194.219 38.7875 193.208 38.6097 193.078 38.8964C192.948 39.1831 193.748 39.8257 194.865 40.3316C195.982 40.8375 196.993 41.0153 197.123 40.7286Z" fill="#DAD4FF"/>
<path d="M163.684 59.8348C163.718 58.6091 163.49 57.6084 163.176 57.5997C162.861 57.5911 162.579 58.5776 162.545 59.8034C162.511 61.0291 162.739 62.0297 163.053 62.0384C163.368 62.0471 163.65 61.0605 163.684 59.8348Z" fill="#DAD4FF"/>
<path d="M157.93 55.6392C158.518 55.0886 158.841 54.4826 158.656 54.2883C158.555 54.1773 158.314 54.2189 158.018 54.3762C157.773 54.5057 157.472 54.478 157.264 54.3022C157.028 54.1032 156.797 53.8858 156.579 53.6499C156.288 53.3399 156.033 53.0207 155.807 52.6876C155.705 52.5396 155.719 52.3406 155.839 52.2111L155.844 52.2065C155.973 52.0584 156.195 52.0307 156.357 52.1417C156.468 52.2157 156.579 52.299 156.69 52.3823C156.898 52.5442 157.093 52.7107 157.269 52.8865C157.43 53.0484 157.481 53.289 157.393 53.5018C157.292 53.7563 157.273 53.9552 157.37 54.0292C157.541 54.1634 158.013 53.8534 158.416 53.3306C158.818 52.8125 159.008 52.2805 158.832 52.1463C158.735 52.0723 158.545 52.1371 158.328 52.299C158.143 52.4378 157.898 52.4517 157.699 52.3314C157.486 52.2018 157.273 52.0538 157.065 51.8965L157.06 51.8919C156.718 51.6235 156.612 51.1563 156.792 50.7584C156.829 50.6798 156.861 50.6011 156.894 50.5225C157.046 50.1431 157.426 49.9072 157.833 49.9396C158.087 49.9581 158.351 49.9905 158.615 50.0367C158.929 50.0923 159.235 50.1616 159.531 50.2495C159.799 50.3282 159.989 50.5641 160.017 50.8417C160.049 51.1748 160.146 51.3969 160.294 51.4246C160.558 51.4709 160.882 50.8648 161.02 50.0737C161.159 49.2827 161.057 48.6026 160.794 48.5563C160.646 48.5286 160.479 48.709 160.336 49.0097C160.215 49.2642 159.956 49.4168 159.679 49.4029C159.373 49.3844 159.059 49.352 158.744 49.2965C158.402 49.2364 158.069 49.1577 157.754 49.0606C157.491 48.9819 157.315 48.7321 157.319 48.4592C157.319 48.4546 157.319 48.4499 157.319 48.4453C157.329 47.9873 157.639 47.5941 158.083 47.4738C158.106 47.4692 158.134 47.4599 158.157 47.4553C158.411 47.3905 158.661 47.3396 158.911 47.3072C159.138 47.2749 159.36 47.3859 159.475 47.5848C159.609 47.8208 159.762 47.9549 159.878 47.9272C160.091 47.8716 160.128 47.3119 159.966 46.6734C159.799 46.035 159.494 45.5631 159.281 45.6186C159.161 45.651 159.096 45.8407 159.091 46.1137C159.087 46.345 158.948 46.5485 158.735 46.6272C158.499 46.7197 158.254 46.7983 158.004 46.8631C157.999 46.8631 157.999 46.8631 157.995 46.8631C157.56 46.9741 157.111 46.7382 156.949 46.3172C156.949 46.3126 156.945 46.3033 156.945 46.2987C156.806 45.9332 156.922 45.5169 157.232 45.2809C157.43 45.1329 157.634 44.9848 157.851 44.8507C158.124 44.6795 158.402 44.5268 158.68 44.3973C158.929 44.277 159.225 44.3279 159.429 44.5176C159.674 44.7443 159.896 44.8461 160.026 44.7674C160.252 44.624 160.091 43.9578 159.665 43.2778C159.239 42.5977 158.707 42.1582 158.481 42.3016C158.351 42.3803 158.346 42.6255 158.444 42.9447C158.522 43.2084 158.439 43.4998 158.222 43.671C157.981 43.8653 157.722 44.0457 157.449 44.2169C157.218 44.3603 156.986 44.4898 156.75 44.6101C156.422 44.772 156.024 44.698 155.774 44.4297C155.77 44.4251 155.77 44.4251 155.765 44.4204C155.497 44.1336 155.469 43.6941 155.705 43.3749C155.728 43.3425 155.751 43.3101 155.774 43.2824C155.932 43.0742 156.103 42.8799 156.274 42.6995C156.431 42.5329 156.676 42.482 156.889 42.5699C157.144 42.6717 157.343 42.6856 157.417 42.5884C157.551 42.4126 157.232 41.95 156.709 41.5475C156.186 41.1497 155.654 40.9646 155.52 41.1404C155.446 41.2376 155.511 41.4272 155.677 41.6447C155.816 41.8251 155.83 42.0749 155.714 42.2692C155.585 42.4867 155.441 42.6995 155.284 42.9077C155.251 42.9493 155.219 42.9909 155.187 43.0326C154.951 43.324 154.544 43.4073 154.211 43.2361C154.206 43.2361 154.201 43.2315 154.201 43.2315C153.854 43.0511 153.697 42.6393 153.827 42.2739C153.901 42.0564 153.989 41.8436 154.086 41.6262C154.22 41.3347 154.363 41.0571 154.521 40.7934C154.664 40.5529 154.937 40.428 155.214 40.4696C155.543 40.5205 155.783 40.4835 155.848 40.3447C155.959 40.0995 155.455 39.6323 154.724 39.3038C153.993 38.9707 153.308 38.9013 153.197 39.1465C153.137 39.2853 153.267 39.4888 153.521 39.7016C153.734 39.8821 153.822 40.1689 153.739 40.4372C153.646 40.7287 153.53 41.0248 153.401 41.3162C153.258 41.6354 153.096 41.9408 152.92 42.2276C152.753 42.5005 152.443 42.644 152.124 42.6116C151.958 42.5931 151.786 42.5838 151.62 42.5792C151.236 42.5746 150.907 42.3016 150.829 41.9269C150.829 41.9223 150.829 41.9223 150.829 41.9176C150.773 41.6632 150.736 41.4087 150.713 41.1543C150.69 40.9276 150.815 40.7102 151.018 40.6038C151.259 40.4789 151.402 40.3354 151.379 40.2152C151.333 40.0024 150.773 39.9376 150.13 40.0717C149.487 40.2059 149.001 40.4927 149.043 40.7055C149.066 40.8258 149.256 40.8999 149.529 40.9184C149.755 40.9322 149.954 41.0803 150.028 41.2977C150.107 41.5336 150.176 41.7835 150.232 42.0425V42.0472C150.306 42.3941 150.102 42.7411 149.765 42.8521C149.631 42.8984 149.492 42.9447 149.358 43.0002C149.071 43.1205 148.738 43.0279 148.543 42.7827C148.381 42.5699 148.224 42.3479 148.076 42.1119C147.905 41.839 147.752 41.5614 147.623 41.2838C147.502 41.034 147.553 40.7379 147.743 40.5344C147.97 40.2892 148.071 40.0671 147.993 39.9376C147.849 39.7109 147.183 39.8728 146.503 40.2984C145.795 40.7194 145.356 41.2468 145.499 41.4735C145.578 41.603 145.823 41.6077 146.142 41.5105C146.406 41.4319 146.697 41.5151 146.869 41.7326C147.063 41.9731 147.243 42.2322 147.415 42.5052C147.549 42.718 147.669 42.9308 147.775 43.1482C147.937 43.4628 147.863 43.8468 147.604 44.0874C147.6 44.092 147.6 44.092 147.595 44.0966C147.304 44.3649 146.859 44.3742 146.559 44.1244C146.545 44.1151 146.536 44.1059 146.522 44.0966C146.323 43.9301 146.133 43.7543 145.962 43.5692C145.805 43.4027 145.763 43.1575 145.86 42.9493C145.971 42.6995 145.994 42.5005 145.902 42.4219C145.735 42.2831 145.254 42.5746 144.833 43.0835C144.412 43.5877 144.204 44.1151 144.37 44.2539C144.463 44.3325 144.657 44.277 144.879 44.1197C145.069 43.9902 145.314 43.9856 145.509 44.1105C145.717 44.2493 145.925 44.4019 146.128 44.5685L146.133 44.5731C146.466 44.8553 146.563 45.3318 146.364 45.7204C146.267 45.9101 146.179 46.1044 146.105 46.3033C145.976 46.6411 145.666 46.877 145.31 46.9048C145.009 46.9325 144.704 46.9418 144.389 46.9325C144.07 46.9233 143.755 46.8955 143.454 46.8539C143.177 46.8122 142.955 46.6087 142.89 46.3403C142.811 46.0165 142.682 45.8083 142.529 45.8037C142.261 45.7944 142.025 46.4375 142.002 47.2425C141.979 48.0474 142.178 48.7044 142.446 48.709C142.594 48.7136 142.737 48.5147 142.835 48.1955C142.918 47.9272 143.149 47.7375 143.427 47.7143C143.732 47.6866 144.047 47.6773 144.366 47.6866C144.588 47.6912 144.81 47.7097 145.023 47.7329C145.416 47.7745 145.717 48.103 145.726 48.4962C145.726 48.5008 145.726 48.5054 145.726 48.5101C145.735 48.8894 145.481 49.2225 145.111 49.3012C145.069 49.3104 145.032 49.3197 144.99 49.3243C144.731 49.3752 144.477 49.4122 144.227 49.4307C144 49.4492 143.783 49.3289 143.681 49.1207C143.556 48.8755 143.417 48.7368 143.297 48.7599C143.08 48.8015 143.015 49.3613 143.145 50.009C143.274 50.6567 143.556 51.1424 143.769 51.1008C143.889 51.0776 143.963 50.8926 143.982 50.6196C144 50.393 144.148 50.194 144.366 50.1246C144.606 50.046 144.852 49.9812 145.111 49.9303C145.129 49.9257 145.152 49.9211 145.171 49.9165C145.569 49.8424 145.962 50.0552 146.11 50.4346C146.11 50.4392 146.115 50.4439 146.115 50.4485C146.249 50.7954 146.142 51.1933 145.846 51.42C145.647 51.568 145.444 51.7161 145.226 51.8502C144.953 52.0214 144.676 52.1741 144.398 52.3036C144.148 52.4239 143.852 52.373 143.649 52.1833C143.404 51.9566 143.182 51.8549 143.052 51.9335C142.825 52.0769 142.987 52.7431 143.413 53.4232C143.838 54.1032 144.37 54.5427 144.597 54.3993C144.727 54.3207 144.731 54.0755 144.634 53.7563C144.556 53.4926 144.639 53.2011 144.856 53.0299C145.097 52.8356 145.356 52.6552 145.629 52.484C145.846 52.3499 146.064 52.225 146.281 52.1139C146.619 51.9428 147.026 52.0214 147.285 52.299C147.304 52.3175 147.322 52.3406 147.341 52.3591C147.637 52.6691 147.655 53.1595 147.373 53.4879L147.368 53.4926C147.197 53.6915 147.021 53.8765 146.836 54.0477C146.67 54.205 146.425 54.242 146.216 54.1449C145.967 54.0292 145.768 54.0061 145.689 54.0986C145.546 54.2652 145.837 54.7463 146.341 55.1765C146.841 55.6021 147.364 55.815 147.507 55.6484C147.586 55.5559 147.53 55.3616 147.378 55.1349C147.248 54.9452 147.248 54.6954 147.373 54.5057C147.512 54.2975 147.669 54.0894 147.836 53.8904C147.886 53.8303 147.937 53.7748 147.988 53.7192C148.233 53.4509 148.627 53.3815 148.955 53.5388C148.96 53.5388 148.964 53.5435 148.969 53.5435C149.302 53.7054 149.487 54.0662 149.422 54.4271C149.376 54.6908 149.311 54.9545 149.237 55.2228C149.149 55.5281 149.043 55.8288 148.927 56.111C148.821 56.3701 148.567 56.532 148.289 56.5274C147.956 56.5228 147.72 56.5968 147.678 56.7402C147.604 56.9993 148.169 57.3879 148.941 57.6099C149.714 57.832 150.399 57.8042 150.473 57.5452C150.514 57.4018 150.357 57.2167 150.07 57.0409C149.834 56.8929 149.705 56.6199 149.751 56.347C149.802 56.0463 149.871 55.7363 149.959 55.431C150.019 55.2182 150.089 55.01 150.167 54.8111C150.329 54.3808 150.755 54.1032 151.213 54.1264C151.338 54.131 151.458 54.1356 151.583 54.1356C152.069 54.131 152.499 54.4595 152.614 54.9267C152.614 54.9313 152.614 54.9313 152.614 54.936C152.679 55.1904 152.726 55.4449 152.758 55.6947C152.786 55.9214 152.675 56.1434 152.476 56.2544C152.24 56.3886 152.101 56.5366 152.133 56.6569C152.184 56.8697 152.749 56.916 153.387 56.7541C154.026 56.5968 154.502 56.2915 154.451 56.0786C154.423 55.9584 154.234 55.8936 153.961 55.8843C153.729 55.8797 153.53 55.7363 153.447 55.5235C153.359 55.2876 153.281 55.0424 153.221 54.7879C153.221 54.7833 153.221 54.7833 153.221 54.7787C153.11 54.3207 153.336 53.8442 153.766 53.6452C153.942 53.562 154.118 53.4787 154.275 53.3954C154.636 53.2104 155.066 53.2659 155.372 53.5249C155.598 53.7193 155.821 53.9274 156.033 54.1541C156.251 54.3854 156.454 54.6306 156.635 54.8758C156.801 55.0979 156.811 55.4032 156.667 55.6392C156.496 55.926 156.436 56.1619 156.538 56.273C156.718 56.4765 157.343 56.1897 157.93 55.6392Z" fill="#9489D6"/>
<path d="M159.739 44.2031C159.637 44.2679 159.355 43.9995 159.11 43.6063C158.865 43.2131 158.744 42.843 158.846 42.7782C158.948 42.7134 159.23 42.9818 159.475 43.375C159.725 43.7682 159.841 44.1383 159.739 44.2031Z" fill="#9489D6"/>
<path d="M155.913 46.6735C155.64 46.8447 155.205 46.6365 154.937 46.2109C154.673 45.7853 154.678 45.3041 154.951 45.133C155.224 44.9618 155.659 45.17 155.927 45.5956C156.191 46.0212 156.181 46.507 155.913 46.6735ZM148.035 50.5318C147.771 50.1062 147.331 49.9026 147.058 50.0692C146.785 50.2404 146.781 50.7215 147.044 51.1471C147.308 51.5727 147.748 51.7763 148.021 51.6097C148.298 51.4386 148.303 50.9574 148.035 50.5318ZM153.572 47.1731C153.295 47.5618 152.739 47.6404 152.332 47.3489C151.925 47.0575 151.819 46.507 152.096 46.1184C152.374 45.7298 152.929 45.6511 153.336 45.9426C153.739 46.234 153.845 46.7845 153.572 47.1731ZM151.06 50.6984C150.783 51.087 150.227 51.1656 149.82 50.8742C149.413 50.5827 149.307 50.0322 149.584 49.6436C149.862 49.255 150.417 49.1763 150.824 49.4678C151.227 49.7592 151.333 50.3098 151.06 50.6984ZM152.813 50.4023C152.425 50.1247 152.346 49.5696 152.638 49.1624C152.929 48.7553 153.48 48.6489 153.868 48.9265C154.257 49.2041 154.335 49.7592 154.044 50.1663C153.753 50.5735 153.197 50.6799 152.813 50.4023ZM149.288 47.8902C148.9 47.6126 148.821 47.0575 149.112 46.6504C149.404 46.2433 149.954 46.1369 150.343 46.4144C150.732 46.692 150.81 47.2472 150.519 47.6543C150.227 48.0614 149.672 48.1678 149.288 47.8902ZM149.788 43.9486C149.959 44.2216 149.751 44.6565 149.325 44.9248C148.9 45.1885 148.418 45.1839 148.247 44.9109C148.076 44.638 148.284 44.2031 148.71 43.9348C149.136 43.6711 149.621 43.6757 149.788 43.9486ZM153.646 51.8226C153.221 52.0862 153.017 52.5257 153.184 52.7987C153.355 53.0716 153.836 53.0763 154.261 52.8126C154.687 52.5489 154.891 52.1094 154.724 51.8364C154.553 51.5635 154.072 51.5589 153.646 51.8226ZM153.415 44.0458C153.341 44.3604 152.887 44.5223 152.402 44.4066C151.911 44.2956 151.574 43.9486 151.648 43.634C151.722 43.3195 152.175 43.1575 152.661 43.2732C153.151 43.3842 153.489 43.7312 153.415 44.0458ZM150.574 52.3407C150.084 52.2297 149.631 52.3916 149.561 52.7015C149.487 53.0161 149.825 53.3585 150.315 53.4741C150.806 53.5852 151.259 53.4232 151.328 53.1133C151.398 52.7941 151.06 52.4517 150.574 52.3407ZM147.16 46.4422C147.475 46.5162 147.637 46.9696 147.521 47.4553C147.41 47.9457 147.063 48.2835 146.748 48.2094C146.434 48.1354 146.272 47.682 146.388 47.1963C146.499 46.7105 146.846 46.3728 147.16 46.4422ZM155.45 49.2874C155.339 49.7777 155.501 50.2311 155.811 50.3005C156.126 50.3745 156.468 50.0368 156.584 49.5464C156.695 49.056 156.533 48.6027 156.223 48.5333C155.908 48.4593 155.566 48.797 155.45 49.2874Z" fill="#9489D6"/>
<path d="M146.814 40.8345C147.208 40.5879 147.476 40.3055 147.412 40.2037C147.349 40.1019 146.978 40.2193 146.583 40.4659C146.189 40.7124 145.921 40.9949 145.985 41.0967C146.048 41.1985 146.42 41.0811 146.814 40.8345Z" fill="#9489D6"/>
<path d="M155.302 40.0254C155.251 40.1364 154.872 40.067 154.446 39.8774C154.021 39.6877 153.72 39.4425 153.771 39.3315C153.822 39.2204 154.201 39.2898 154.627 39.4795C155.053 39.6692 155.353 39.9144 155.302 40.0254Z" fill="#9489D6"/>
<path d="M160.447 50.8279C160.331 50.8094 160.299 50.4208 160.377 49.9628C160.456 49.5048 160.618 49.1486 160.734 49.1717C160.849 49.1902 160.882 49.5788 160.803 50.0368C160.724 50.4948 160.562 50.8511 160.447 50.8279Z" fill="#9489D6"/>
<path d="M144.218 53.9135C144.32 53.8488 144.199 53.4787 143.954 53.0854C143.709 52.6922 143.427 52.4239 143.325 52.4886C143.223 52.5534 143.343 52.9235 143.589 53.3168C143.834 53.7054 144.116 53.9737 144.218 53.9135Z" fill="#9489D6"/>
<path d="M142.4 48.0937C142.52 48.0983 142.626 47.7236 142.64 47.2563C142.654 46.7937 142.566 46.4143 142.446 46.4097C142.326 46.4051 142.219 46.7798 142.205 47.2471C142.196 47.7097 142.279 48.089 142.4 48.0937Z" fill="#9489D6"/>
<path d="M149.867 57.448C149.899 57.3323 149.566 57.138 149.117 57.0085C148.668 56.8789 148.28 56.8697 148.247 56.9853C148.215 57.101 148.548 57.2953 148.997 57.4248C149.446 57.5497 149.834 57.5636 149.867 57.448Z" fill="#9489D6"/>
<path d="M157.028 55.9074C156.945 55.8195 157.153 55.4911 157.495 55.1719C157.833 54.8526 158.175 54.6676 158.259 54.7555C158.342 54.8434 158.134 55.1719 157.791 55.4911C157.449 55.8103 157.111 55.9953 157.028 55.9074Z" fill="#9489D6"/>
<path d="M135.897 57.8974C136.983 56.8118 136.983 55.0515 135.897 53.9658C134.812 52.8802 133.051 52.8802 131.966 53.9658C130.88 55.0515 130.88 56.8118 131.966 57.8974C133.051 58.9831 134.812 58.9831 135.897 57.8974Z" fill="#9489D6"/>
</g>
</svg>
