<svg width="85" height="54" xmlns="http://www.w3.org/2000/svg" xmlns:svg="http://www.w3.org/2000/svg">
 <g class="layer">
  <title>Layer 1</title>
  <g id="svg_2" mask="url(#mask0)">
   <path d="m75.054,45.9593c1.545,-1.4527 2.408,-3.0503 1.924,-3.5642c-0.27,-0.2899 -0.906,-0.1779 -1.687,0.2339c-0.646,0.3393 -1.436,0.2701 -1.996,-0.201c-0.623,-0.5237 -1.229,-1.0969 -1.812,-1.7195c-0.764,-0.8137 -1.446,-1.6635 -2.042,-2.5365c-0.267,-0.3887 -0.231,-0.9125 0.082,-1.2649c0.003,-0.0033 0.007,-0.0099 0.01,-0.0132c0.346,-0.3854 0.922,-0.4612 1.351,-0.1713c0.293,0.2009 0.586,0.4151 0.876,0.6391c0.547,0.4249 1.057,0.8729 1.532,1.3374c0.431,0.4249 0.56,1.064 0.329,1.624c-0.273,0.6654 -0.316,1.1957 -0.059,1.3934c0.458,0.3558 1.693,-0.4711 2.76,-1.8447c1.067,-1.3737 1.562,-2.777 1.104,-3.1327c-0.257,-0.1977 -0.758,-0.0264 -1.334,0.4019c-0.485,0.3623 -1.14,0.3986 -1.657,0.0856c-0.567,-0.3426 -1.127,-0.728 -1.674,-1.1529c-0.006,-0.0033 -0.01,-0.0099 -0.016,-0.0132c-0.906,-0.705 -1.189,-1.9468 -0.712,-2.9944c0.092,-0.2042 0.181,-0.4117 0.267,-0.6193c0.402,-0.9981 1.403,-1.6273 2.474,-1.5449c0.679,0.0527 1.367,0.1384 2.059,0.2569c0.833,0.145 1.64,0.336 2.414,0.5666c0.709,0.2109 1.209,0.8269 1.282,1.5614c0.085,0.8763 0.342,1.4692 0.731,1.5351c0.698,0.1219 1.558,-1.4758 1.921,-3.5642c0.365,-2.0918 0.095,-3.8838 -0.603,-4.0057c-0.392,-0.0692 -0.834,0.4019 -1.209,1.1991c-0.316,0.6654 -0.998,1.0772 -1.733,1.0376c-0.807,-0.0461 -1.634,-0.1383 -2.464,-0.2833c-0.906,-0.1581 -1.779,-0.3689 -2.615,-0.6259c-0.696,-0.2141 -1.16,-0.863 -1.147,-1.5877c0,-0.0099 0,-0.0198 0,-0.0297c0.02,-1.2089 0.847,-2.2498 2.013,-2.5661c0.066,-0.0164 0.128,-0.0329 0.194,-0.0527c0.669,-0.1713 1.338,-0.303 1.993,-0.3953c0.6,-0.0823 1.186,0.2108 1.486,0.7346c0.359,0.6259 0.751,0.9817 1.067,0.8993c0.56,-0.1449 0.666,-1.6273 0.231,-3.3139c-0.435,-1.6833 -1.242,-2.9317 -1.802,-2.7868c-0.313,0.0824 -0.484,0.5831 -0.498,1.3045c-0.009,0.6061 -0.382,1.143 -0.945,1.3604c-0.619,0.2372 -1.265,0.448 -1.937,0.6193c-0.007,0.0033 -0.016,0.0033 -0.023,0.0066c-1.153,0.2965 -2.339,-0.336 -2.76,-1.4461c-0.007,-0.0165 -0.014,-0.0296 -0.017,-0.0461c-0.369,-0.9652 -0.059,-2.0588 0.761,-2.6847c0.52,-0.3953 1.067,-0.7774 1.64,-1.1365c0.722,-0.4513 1.453,-0.8499 2.191,-1.1991c0.662,-0.3129 1.443,-0.1811 1.98,0.313c0.649,0.5929 1.235,0.863 1.571,0.6555c0.6,-0.3755 0.175,-2.1379 -0.952,-3.9365c-1.126,-1.7985 -2.523,-2.9548 -3.123,-2.5792c-0.336,0.2108 -0.349,0.8564 -0.099,1.6997c0.208,0.7017 -0.013,1.4626 -0.583,1.9172c-0.635,0.5106 -1.317,0.9948 -2.039,1.4461c-0.609,0.3821 -1.225,0.7247 -1.848,1.0344c-0.869,0.4315 -1.92,0.2338 -2.579,-0.4777c-0.007,-0.0066 -0.016,-0.0165 -0.023,-0.023c-0.708,-0.761 -0.777,-1.9238 -0.161,-2.7605c0.062,-0.0824 0.125,-0.168 0.187,-0.2504c0.419,-0.5501 0.863,-1.064 1.325,-1.5416c0.418,-0.4348 1.06,-0.5666 1.62,-0.3426c0.669,0.2668 1.196,0.3064 1.394,0.0461c0.352,-0.4612 -0.485,-1.6899 -1.868,-2.744c-1.384,-1.0541 -2.79,-1.535 -3.143,-1.0739c-0.197,0.257 -0.019,0.7577 0.415,1.3309c0.366,0.4809 0.409,1.1331 0.099,1.6536c-0.339,0.5699 -0.718,1.1332 -1.136,1.6833c-0.086,0.112 -0.172,0.224 -0.26,0.3327c-0.62,0.7741 -1.7,0.9948 -2.583,0.5369c-0.01,-0.0065 -0.02,-0.0098 -0.03,-0.0164c-0.915,-0.4744 -1.327,-1.5581 -0.985,-2.5299c0.201,-0.5699 0.432,-1.1398 0.689,-1.7064c0.349,-0.7708 0.734,-1.5054 1.153,-2.1971c0.379,-0.6325 1.103,-0.9619 1.831,-0.8499c0.87,0.135 1.509,0.0362 1.67,-0.3261c0.294,-0.6457 -1.037,-1.8777 -2.971,-2.7506c-1.93,-0.8763 -3.735,-1.064 -4.025,-0.4217c-0.165,0.3624 0.181,0.9059 0.856,1.4692c0.567,0.4711 0.794,1.2353 0.57,1.937c-0.247,0.7708 -0.543,1.5449 -0.893,2.3157c-0.382,0.8466 -0.81,1.6471 -1.274,2.4014c-0.442,0.7181 -1.262,1.1003 -2.099,1.0146c-0.445,-0.0461 -0.889,-0.0725 -1.337,-0.079c-1.012,-0.0165 -1.881,-0.7346 -2.089,-1.7229c0,-0.0066 -0.003,-0.0131 -0.003,-0.0197c-0.142,-0.6786 -0.244,-1.3506 -0.303,-2.0094c-0.056,-0.6029 0.263,-1.1727 0.8,-1.4527c0.639,-0.3328 1.015,-0.7083 0.946,-1.0245c-0.119,-0.5666 -1.598,-0.7379 -3.298,-0.3788c-1.703,0.359 -2.984,1.1101 -2.865,1.6767c0.065,0.3162 0.56,0.5106 1.278,0.5567c0.602,0.0395 1.126,0.4315 1.317,1.008c0.211,0.6291 0.389,1.2847 0.531,1.96c0,0.0066 0.003,0.0131 0.003,0.0164c0.191,0.9191 -0.343,1.8349 -1.235,2.1247c-0.359,0.1153 -0.718,0.2471 -1.074,0.392c-0.761,0.313 -1.641,0.0791 -2.145,-0.5731c-0.431,-0.5567 -0.846,-1.1464 -1.232,-1.769c-0.451,-0.7214 -0.85,-1.4527 -1.199,-2.1906c-0.313,-0.6621 -0.181,-1.4428 0.313,-1.9797c0.593,-0.649 0.863,-1.2353 0.656,-1.5713c-0.376,-0.5995 -2.138,-0.1746 -3.937,0.952c-1.798,1.1266 -2.955,2.5233 -2.579,3.1228c0.211,0.336 0.856,0.3492 1.7,0.0988c0.701,-0.2075 1.462,0.0132 1.917,0.5831c0.51,0.6358 0.995,1.3176 1.446,2.039c0.349,0.56 0.669,1.1266 0.959,1.6965c0.421,0.8367 0.233,1.8513 -0.458,2.4838c-0.007,0.0066 -0.017,0.0132 -0.023,0.023c-0.768,0.705 -1.937,0.7346 -2.741,0.0725c-0.033,-0.0263 -0.063,-0.0527 -0.096,-0.0791c-0.53,-0.4447 -1.024,-0.9091 -1.482,-1.3901c-0.415,-0.4381 -0.52,-1.0837 -0.27,-1.6371c0.3,-0.6556 0.359,-1.1826 0.109,-1.3902c-0.445,-0.3722 -1.71,0.4085 -2.827,1.7426c-1.116,1.3341 -1.66,2.7177 -1.215,3.0899c0.25,0.2075 0.754,0.056 1.35,-0.3558c0.498,-0.3425 1.153,-0.3557 1.657,-0.023c0.554,0.3623 1.101,0.7675 1.631,1.2122c0.006,0.0033 0.01,0.0099 0.016,0.0132c0.883,0.7412 1.134,1.9995 0.61,3.0273c-0.257,0.5007 -0.484,1.0146 -0.682,1.5416c-0.336,0.8894 -1.156,1.512 -2.102,1.5911c-0.79,0.0692 -1.604,0.0922 -2.431,0.0692c-0.843,-0.0231 -1.67,-0.0956 -2.474,-0.2109c-0.731,-0.1054 -1.314,-0.6456 -1.492,-1.3604c-0.211,-0.8532 -0.55,-1.4033 -0.945,-1.4132c-0.709,-0.0198 -1.331,1.6833 -1.39,3.8047c-0.06,2.1214 0.467,3.8574 1.172,3.8772c0.396,0.0099 0.764,-0.5205 1.025,-1.3605c0.217,-0.7049 0.83,-1.2122 1.564,-1.2748c0.807,-0.0725 1.634,-0.0988 2.481,-0.0725c0.59,0.0165 1.169,0.056 1.739,0.1186c1.038,0.112 1.838,0.9718 1.861,2.016c0,0.0099 0,0.0231 0,0.033c0.027,0.9981 -0.652,1.8776 -1.627,2.095c-0.105,0.0231 -0.211,0.0461 -0.316,0.0659c-0.679,0.135 -1.351,0.2306 -2.013,0.2866c-0.603,0.0494 -1.173,-0.2734 -1.446,-0.8137c-0.326,-0.6423 -0.698,-1.0211 -1.018,-0.9553c-0.57,0.1153 -0.751,1.5911 -0.408,3.2942c0.342,1.7063 1.083,2.9943 1.65,2.8823c0.32,-0.0626 0.517,-0.5567 0.567,-1.2748c0.042,-0.6028 0.441,-1.12 1.017,-1.3078c0.63,-0.2042 1.288,-0.3788 1.967,-0.5139c0.053,-0.0098 0.105,-0.0197 0.158,-0.0296c1.048,-0.2009 2.092,0.3689 2.477,1.3638c0.004,0.0098 0.007,0.0197 0.014,0.0296c0.355,0.9191 0.072,1.9633 -0.712,2.5595c-0.52,0.3953 -1.067,0.7774 -1.644,1.1365c-0.721,0.4513 -1.456,0.8499 -2.19,1.1991c-0.662,0.3129 -1.443,0.1811 -1.98,-0.313c-0.649,-0.5929 -1.235,-0.863 -1.571,-0.6555c-0.6,0.3755 -0.175,2.1379 0.952,3.9365c1.126,1.7986 2.523,2.9548 3.122,2.5793c0.336,-0.2109 0.35,-0.8565 0.099,-1.6998c-0.207,-0.7017 0.013,-1.4626 0.583,-1.9172c0.636,-0.5106 1.318,-0.9948 2.039,-1.4461c0.57,-0.3558 1.147,-0.6786 1.723,-0.9718c0.893,-0.448 1.967,-0.2371 2.649,0.4941c0.049,0.056 0.102,0.1088 0.151,0.1615c0.787,0.8235 0.827,2.1115 0.089,2.9811c-0.003,0.0066 -0.01,0.0099 -0.013,0.0165c-0.448,0.5271 -0.919,1.0179 -1.403,1.4692c-0.442,0.4117 -1.091,0.5106 -1.638,0.2536c-0.655,-0.303 -1.179,-0.3689 -1.39,-0.1219c-0.375,0.4415 0.392,1.713 1.717,2.8429c1.324,1.1299 2.704,1.6833 3.08,1.2419c0.21,-0.2471 0.062,-0.7544 -0.343,-1.3539c-0.339,-0.5007 -0.346,-1.1563 -0.01,-1.657c0.369,-0.5501 0.778,-1.0936 1.226,-1.6207c0.131,-0.1548 0.266,-0.3063 0.401,-0.4546c0.649,-0.7115 1.69,-0.896 2.557,-0.471c0.013,0.0066 0.023,0.0099 0.036,0.0164c0.876,0.4283 1.367,1.3803 1.192,2.3389c-0.125,0.6917 -0.29,1.3934 -0.49,2.095c-0.234,0.8137 -0.511,1.5944 -0.824,2.3421c-0.283,0.6786 -0.952,1.1135 -1.69,1.1036c-0.879,-0.0099 -1.495,0.1812 -1.607,0.5633c-0.195,0.6786 1.297,1.7063 3.337,2.2927c2.039,0.5863 3.85,0.5139 4.045,-0.168c0.108,-0.3821 -0.31,-0.8697 -1.061,-1.3308c-0.629,-0.3855 -0.965,-1.1069 -0.843,-1.8349c0.131,-0.7971 0.316,-1.6075 0.55,-2.4211c0.161,-0.5633 0.342,-1.1102 0.543,-1.6405c0.429,-1.1365 1.549,-1.8744 2.764,-1.8085c0.326,0.0165 0.652,0.0231 0.978,0.0198c1.282,-0.0132 2.415,0.8499 2.725,2.095c0.003,0.0066 0.003,0.0165 0.006,0.0231c0.168,0.672 0.293,1.3407 0.376,1.9962c0.076,0.5996 -0.221,1.1826 -0.748,1.4791c-0.629,0.3558 -0.988,0.7445 -0.909,1.0574c0.138,0.5633 1.621,0.6786 3.31,0.2602c1.69,-0.4183 2.945,-1.2155 2.804,-1.7788c-0.079,-0.3162 -0.577,-0.4908 -1.298,-0.5106c-0.606,-0.0164 -1.14,-0.392 -1.354,-0.9586c-0.234,-0.6193 -0.435,-1.2682 -0.603,-1.9402c-0.003,-0.0066 -0.003,-0.0165 -0.006,-0.0231c-0.3,-1.2089 0.306,-2.464 1.436,-2.9877c0.461,-0.2141 0.925,-0.4447 1.341,-0.6555c0.945,-0.4843 2.088,-0.3459 2.898,0.3425c0.603,0.5106 1.186,1.0673 1.75,1.6669c0.579,0.616 1.11,1.2517 1.591,1.904c0.438,0.5929 0.467,1.3868 0.085,2.016c-0.458,0.751 -0.609,1.3802 -0.336,1.6668c0.501,0.5172 2.145,-0.2438 3.693,-1.6965z" fill="#9489D6" id="svg_3"/>
   <path d="m79.837,15.7621c-0.267,0.168 -1.011,-0.5402 -1.664,-1.5812c-0.652,-1.0409 -0.961,-2.0192 -0.695,-2.1872c0.267,-0.168 1.012,0.5402 1.664,1.5811c0.652,1.041 0.965,2.0226 0.695,2.1873z" fill="#DAD4FF" id="svg_4"/>
   <path d="m69.727,22.2943c-0.718,0.448 -1.871,-0.0955 -2.572,-1.2188c-0.702,-1.1233 -0.689,-2.3948 0.029,-2.8461c0.718,-0.448 1.871,0.0955 2.573,1.2188c0.702,1.1233 0.688,2.3948 -0.03,2.8461zm-20.792,10.1788c-0.702,-1.1233 -1.855,-1.6668 -2.573,-1.2188c-0.718,0.448 -0.731,1.7228 -0.029,2.8461c0.701,1.1233 1.854,1.6669 2.572,1.2189c0.718,-0.4513 0.732,-1.7262 0.03,-2.8462zm14.609,-8.871c-0.731,1.0244 -2.197,1.2353 -3.274,0.4677c-1.077,-0.7675 -1.357,-2.2235 -0.629,-3.248c0.731,-1.0244 2.197,-1.2353 3.274,-0.4677c1.081,0.7675 1.361,2.2202 0.629,3.248zm-6.631,9.3059c-0.731,1.0244 -2.197,1.2353 -3.274,0.4677c-1.077,-0.7675 -1.357,-2.2235 -0.629,-3.248c0.731,-1.0244 2.197,-1.2353 3.274,-0.4677c1.077,0.7708 1.361,2.2235 0.629,3.248zm4.628,-0.7742c-1.024,-0.7313 -1.235,-2.1971 -0.467,-3.2743c0.767,-1.0772 2.223,-1.3572 3.248,-0.6292c1.024,0.7313 1.235,2.1972 0.467,3.2744c-0.767,1.0771 -2.223,1.3604 -3.248,0.6291zm-9.309,-6.6343c-1.024,-0.7313 -1.235,-2.1972 -0.467,-3.2744c0.767,-1.0771 2.223,-1.3571 3.248,-0.6291c1.024,0.7313 1.235,2.1971 0.467,3.2743c-0.767,1.0805 -2.22,1.3605 -3.248,0.6292zm1.331,-10.4061c0.448,0.7181 -0.095,1.871 -1.219,2.5727c-1.123,0.7016 -2.395,0.6884 -2.846,-0.0297c-0.448,-0.7181 0.096,-1.871 1.219,-2.5727c1.123,-0.7049 2.398,-0.6917 2.846,0.0297zm10.179,20.7891c-1.123,0.7017 -1.667,1.8546 -1.219,2.5728c0.448,0.7181 1.723,0.7312 2.846,0.0296c1.124,-0.7016 1.667,-1.8546 1.219,-2.5727c-0.448,-0.7148 -1.723,-0.7313 -2.846,-0.0297zm-0.606,-20.5388c-0.191,0.8268 -1.39,1.2551 -2.678,0.9586c-1.288,-0.2965 -2.181,-1.2089 -1.99,-2.0325c0.191,-0.8268 1.39,-1.255 2.678,-0.9585c1.291,0.2964 2.181,1.2089 1.99,2.0324zm-7.504,21.9026c-1.288,-0.2965 -2.491,0.1318 -2.678,0.9586c-0.191,0.8268 0.701,1.736 1.989,2.0325c1.288,0.2964 2.491,-0.1318 2.678,-0.9586c0.192,-0.8268 -0.701,-1.736 -1.989,-2.0325zm-9.016,-15.5647c0.827,0.1911 1.255,1.3901 0.958,2.6781c-0.296,1.288 -1.209,2.1807 -2.032,1.9897c-0.827,-0.1911 -1.255,-1.3901 -0.959,-2.6781c0.297,-1.288 1.206,-2.1808 2.033,-1.9897zm21.899,7.504c-0.296,1.288 0.132,2.4904 0.959,2.6781c0.827,0.1911 1.736,-0.7016 2.032,-1.9896c0.297,-1.288 -0.132,-2.4904 -0.958,-2.6781c-0.824,-0.1911 -1.736,0.7016 -2.033,1.9896z" fill="#DAD4FF" id="svg_5"/>
   <path d="m45.703,6.8639c1.04,-0.6503 1.747,-1.3937 1.58,-1.6606c-0.167,-0.2668 -1.145,0.044 -2.184,0.6943c-1.04,0.6502 -1.747,1.3937 -1.58,1.6605c0.167,0.2668 1.145,-0.044 2.184,-0.6942z" fill="#DAD4FF" id="svg_6"/>
   <path d="m68.123,4.7286c0.13,-0.2867 -0.67,-0.9293 -1.787,-1.4352c-1.117,-0.5059 -2.128,-0.6837 -2.258,-0.397c-0.13,0.2867 0.67,0.9293 1.787,1.4352c1.117,0.5059 2.128,0.6837 2.258,0.397z" fill="#DAD4FF" id="svg_7"/>
   <path d="m34.684,23.8348c0.034,-1.2257 -0.194,-2.2264 -0.508,-2.2351c-0.315,-0.0086 -0.597,0.9779 -0.631,2.2037c-0.034,1.2257 0.194,2.2263 0.508,2.235c0.315,0.0087 0.597,-0.9779 0.631,-2.2036z" fill="#DAD4FF" id="svg_8"/>
   <path d="m28.93,19.6392c0.588,-0.5506 0.911,-1.1566 0.726,-1.3509c-0.101,-0.111 -0.342,-0.0694 -0.638,0.0879c-0.245,0.1295 -0.546,0.1018 -0.754,-0.074c-0.236,-0.199 -0.467,-0.4164 -0.685,-0.6523c-0.291,-0.31 -0.546,-0.6292 -0.772,-0.9623c-0.102,-0.148 -0.088,-0.347 0.032,-0.4765l0.005,-0.0046c0.129,-0.1481 0.351,-0.1758 0.513,-0.0648c0.111,0.074 0.222,0.1573 0.333,0.2406c0.208,0.1619 0.403,0.3284 0.579,0.5042c0.161,0.1619 0.212,0.4025 0.124,0.6153c-0.101,0.2545 -0.12,0.4534 -0.023,0.5274c0.171,0.1342 0.643,-0.1758 1.046,-0.6986c0.402,-0.5181 0.592,-1.0501 0.416,-1.1843c-0.097,-0.074 -0.287,-0.0092 -0.504,0.1527c-0.185,0.1388 -0.43,0.1527 -0.629,0.0324c-0.213,-0.1296 -0.426,-0.2776 -0.634,-0.4349l-0.005,-0.0046c-0.342,-0.2684 -0.448,-0.7356 -0.268,-1.1335c0.037,-0.0786 0.069,-0.1573 0.102,-0.2359c0.152,-0.3794 0.532,-0.6153 0.939,-0.5829c0.254,0.0185 0.518,0.0509 0.782,0.0971c0.314,0.0556 0.62,0.1249 0.916,0.2128c0.268,0.0787 0.458,0.3146 0.486,0.5922c0.032,0.3331 0.129,0.5552 0.277,0.5829c0.264,0.0463 0.588,-0.5598 0.726,-1.3509c0.139,-0.791 0.037,-1.4711 -0.226,-1.5174c-0.148,-0.0277 -0.315,0.1527 -0.458,0.4534c-0.121,0.2545 -0.38,0.4071 -0.657,0.3932c-0.306,-0.0185 -0.62,-0.0509 -0.935,-0.1064c-0.342,-0.0601 -0.675,-0.1388 -0.99,-0.2359c-0.263,-0.0787 -0.439,-0.3285 -0.435,-0.6014c0,-0.0046 0,-0.0093 0,-0.0139c0.01,-0.458 0.32,-0.8512 0.764,-0.9715c0.023,-0.0046 0.051,-0.0139 0.074,-0.0185c0.254,-0.0648 0.504,-0.1157 0.754,-0.1481c0.227,-0.0323 0.449,0.0787 0.564,0.2776c0.134,0.236 0.287,0.3701 0.403,0.3424c0.213,-0.0556 0.25,-0.6153 0.088,-1.2538c-0.167,-0.6384 -0.472,-1.1103 -0.685,-1.0548c-0.12,0.0324 -0.185,0.2221 -0.19,0.4951c-0.004,0.2313 -0.143,0.4348 -0.356,0.5135c-0.236,0.0925 -0.481,0.1711 -0.731,0.2359c-0.005,0 -0.005,0 -0.009,0c-0.435,0.111 -0.884,-0.1249 -1.046,-0.5459c0,-0.0046 -0.004,-0.0139 -0.004,-0.0185c-0.139,-0.3655 -0.023,-0.7818 0.287,-1.0178c0.198,-0.148 0.402,-0.2961 0.619,-0.4302c0.273,-0.1712 0.551,-0.3239 0.829,-0.4534c0.249,-0.1203 0.545,-0.0694 0.749,0.1203c0.245,0.2267 0.467,0.3285 0.597,0.2498c0.226,-0.1434 0.065,-0.8096 -0.361,-1.4896c-0.426,-0.6801 -0.958,-1.1196 -1.184,-0.9762c-0.13,0.0787 -0.135,0.3239 -0.037,0.6431c0.078,0.2637 -0.005,0.5551 -0.222,0.7263c-0.241,0.1943 -0.5,0.3747 -0.773,0.5459c-0.231,0.1434 -0.463,0.2729 -0.699,0.3932c-0.328,0.1619 -0.726,0.0879 -0.976,-0.1804c-0.004,-0.0046 -0.004,-0.0046 -0.009,-0.0093c-0.268,-0.2868 -0.296,-0.7263 -0.06,-1.0455c0.023,-0.0324 0.046,-0.0648 0.069,-0.0925c0.158,-0.2082 0.329,-0.4025 0.5,-0.5829c0.157,-0.1666 0.402,-0.2175 0.615,-0.1296c0.255,0.1018 0.454,0.1157 0.528,0.0185c0.134,-0.1758 -0.185,-0.6384 -0.708,-1.0409c-0.523,-0.3978 -1.055,-0.5829 -1.189,-0.4071c-0.074,0.0972 -0.009,0.2868 0.157,0.5043c0.139,0.1804 0.153,0.4302 0.037,0.6245c-0.129,0.2175 -0.273,0.4303 -0.43,0.6385c-0.033,0.0416 -0.065,0.0832 -0.097,0.1249c-0.236,0.2914 -0.643,0.3747 -0.976,0.2035c-0.005,0 -0.01,-0.0046 -0.01,-0.0046c-0.347,-0.1804 -0.504,-0.5922 -0.374,-0.9576c0.074,-0.2175 0.162,-0.4303 0.259,-0.6477c0.134,-0.2915 0.277,-0.5691 0.435,-0.8328c0.143,-0.2405 0.416,-0.3654 0.693,-0.3238c0.329,0.0509 0.569,0.0139 0.634,-0.1249c0.111,-0.2452 -0.393,-0.7124 -1.124,-1.0409c-0.731,-0.3331 -1.416,-0.4025 -1.527,-0.1573c-0.06,0.1388 0.07,0.3423 0.324,0.5551c0.213,0.1805 0.301,0.4673 0.218,0.7356c-0.093,0.2915 -0.209,0.5876 -0.338,0.879c-0.143,0.3192 -0.305,0.6246 -0.481,0.9114c-0.167,0.2729 -0.477,0.4164 -0.796,0.384c-0.166,-0.0185 -0.338,-0.0278 -0.504,-0.0324c-0.384,-0.0046 -0.713,-0.2776 -0.791,-0.6523c0,-0.0046 0,-0.0046 0,-0.0093c-0.056,-0.2544 -0.093,-0.5089 -0.116,-0.7633c-0.023,-0.2267 0.102,-0.4441 0.305,-0.5505c0.241,-0.1249 0.384,-0.2684 0.361,-0.3886c-0.046,-0.2128 -0.606,-0.2776 -1.249,-0.1435c-0.643,0.1342 -1.129,0.421 -1.087,0.6338c0.023,0.1203 0.213,0.1944 0.486,0.2129c0.226,0.0138 0.425,0.1619 0.499,0.3793c0.079,0.2359 0.148,0.4858 0.204,0.7448l0,0.0047c0.074,0.3469 -0.13,0.6939 -0.467,0.8049c-0.134,0.0463 -0.273,0.0926 -0.407,0.1481c-0.287,0.1203 -0.62,0.0277 -0.815,-0.2175c-0.162,-0.2128 -0.319,-0.4348 -0.467,-0.6708c-0.171,-0.2729 -0.324,-0.5505 -0.453,-0.8281c-0.121,-0.2498 -0.07,-0.5459 0.12,-0.7494c0.227,-0.2452 0.328,-0.4673 0.25,-0.5968c-0.144,-0.2267 -0.81,-0.0648 -1.49,0.3608c-0.708,0.421 -1.147,0.9484 -1.004,1.1751c0.079,0.1295 0.324,0.1342 0.643,0.037c0.264,-0.0786 0.555,0.0046 0.727,0.2221c0.194,0.2405 0.374,0.4996 0.546,0.7726c0.134,0.2128 0.254,0.4256 0.36,0.643c0.162,0.3146 0.088,0.6986 -0.171,0.9392c-0.004,0.0046 -0.004,0.0046 -0.009,0.0092c-0.291,0.2683 -0.736,0.2776 -1.036,0.0278c-0.014,-0.0093 -0.023,-0.0185 -0.037,-0.0278c-0.199,-0.1665 -0.389,-0.3423 -0.56,-0.5274c-0.157,-0.1665 -0.199,-0.4117 -0.102,-0.6199c0.111,-0.2498 0.134,-0.4488 0.042,-0.5274c-0.167,-0.1388 -0.648,0.1527 -1.069,0.6616c-0.421,0.5042 -0.629,1.0316 -0.463,1.1704c0.093,0.0786 0.287,0.0231 0.509,-0.1342c0.19,-0.1295 0.435,-0.1341 0.63,-0.0092c0.208,0.1388 0.416,0.2914 0.619,0.458l0.005,0.0046c0.333,0.2822 0.43,0.7587 0.231,1.1473c-0.097,0.1897 -0.185,0.384 -0.259,0.5829c-0.129,0.3378 -0.439,0.5737 -0.795,0.6015c-0.301,0.0277 -0.606,0.037 -0.921,0.0277c-0.319,-0.0092 -0.634,-0.037 -0.935,-0.0786c-0.277,-0.0417 -0.499,-0.2452 -0.564,-0.5136c-0.079,-0.3238 -0.208,-0.532 -0.361,-0.5366c-0.268,-0.0093 -0.504,0.6338 -0.527,1.4388c-0.023,0.8049 0.176,1.4619 0.444,1.4665c0.148,0.0046 0.291,-0.1943 0.389,-0.5135c0.083,-0.2683 0.314,-0.458 0.592,-0.4812c0.305,-0.0277 0.62,-0.037 0.939,-0.0277c0.222,0.0046 0.444,0.0231 0.657,0.0463c0.393,0.0416 0.694,0.3701 0.703,0.7633c0,0.0046 0,0.0092 0,0.0139c0.009,0.3793 -0.245,0.7124 -0.615,0.7911c-0.042,0.0092 -0.079,0.0185 -0.121,0.0231c-0.259,0.0509 -0.513,0.0879 -0.763,0.1064c-0.227,0.0185 -0.444,-0.1018 -0.546,-0.31c-0.125,-0.2452 -0.264,-0.3839 -0.384,-0.3608c-0.217,0.0416 -0.282,0.6014 -0.152,1.2491c0.129,0.6477 0.411,1.1334 0.624,1.0918c0.12,-0.0232 0.194,-0.2082 0.213,-0.4812c0.018,-0.2266 0.166,-0.4256 0.384,-0.495c0.24,-0.0786 0.486,-0.1434 0.745,-0.1943c0.018,-0.0046 0.041,-0.0092 0.06,-0.0138c0.398,-0.0741 0.791,0.1387 0.939,0.5181c0,0.0046 0.005,0.0093 0.005,0.0139c0.134,0.3469 0.027,0.7448 -0.269,0.9715c-0.199,0.148 -0.402,0.2961 -0.62,0.4302c-0.273,0.1712 -0.55,0.3239 -0.828,0.4534c-0.25,0.1203 -0.546,0.0694 -0.749,-0.1203c-0.245,-0.2267 -0.467,-0.3284 -0.597,-0.2498c-0.227,0.1434 -0.065,0.8096 0.361,1.4897c0.425,0.68 0.957,1.1195 1.184,0.9761c0.13,-0.0786 0.134,-0.3238 0.037,-0.643c-0.078,-0.2637 0.005,-0.5552 0.222,-0.7264c0.241,-0.1943 0.5,-0.3747 0.773,-0.5459c0.217,-0.1341 0.435,-0.259 0.652,-0.3701c0.338,-0.1711 0.745,-0.0925 1.004,0.1851c0.019,0.0185 0.037,0.0416 0.056,0.0601c0.296,0.31 0.314,0.8004 0.032,1.1288l-0.005,0.0047c-0.171,0.1989 -0.347,0.3839 -0.532,0.5551c-0.166,0.1573 -0.411,0.1943 -0.62,0.0972c-0.249,-0.1157 -0.448,-0.1388 -0.527,-0.0463c-0.143,0.1666 0.148,0.6477 0.652,1.0779c0.5,0.4256 1.023,0.6385 1.166,0.4719c0.079,-0.0925 0.023,-0.2868 -0.129,-0.5135c-0.13,-0.1897 -0.13,-0.4395 -0.005,-0.6292c0.139,-0.2082 0.296,-0.4163 0.463,-0.6153c0.05,-0.0601 0.101,-0.1156 0.152,-0.1712c0.245,-0.2683 0.639,-0.3377 0.967,-0.1804c0.005,0 0.009,0.0047 0.014,0.0047c0.333,0.1619 0.518,0.5227 0.453,0.8836c-0.046,0.2637 -0.111,0.5274 -0.185,0.7957c-0.088,0.3053 -0.194,0.606 -0.31,0.8882c-0.106,0.2591 -0.36,0.421 -0.638,0.4164c-0.333,-0.0046 -0.569,0.0694 -0.611,0.2128c-0.074,0.2591 0.491,0.6477 1.263,0.8697c0.773,0.2221 1.458,0.1943 1.532,-0.0647c0.041,-0.1434 -0.116,-0.3285 -0.403,-0.5043c-0.236,-0.148 -0.365,-0.421 -0.319,-0.6939c0.051,-0.3007 0.12,-0.6107 0.208,-0.916c0.06,-0.2128 0.13,-0.421 0.208,-0.6199c0.162,-0.4303 0.588,-0.7079 1.046,-0.6847c0.125,0.0046 0.245,0.0092 0.37,0.0092c0.486,-0.0046 0.916,0.3239 1.031,0.7911c0,0.0046 0,0.0046 0,0.0093c0.065,0.2544 0.112,0.5089 0.144,0.7587c0.028,0.2267 -0.083,0.4487 -0.282,0.5597c-0.236,0.1342 -0.375,0.2822 -0.343,0.4025c0.051,0.2128 0.616,0.2591 1.254,0.0972c0.639,-0.1573 1.115,-0.4626 1.064,-0.6755c-0.028,-0.1202 -0.217,-0.185 -0.49,-0.1943c-0.232,-0.0046 -0.431,-0.148 -0.514,-0.3608c-0.088,-0.2359 -0.166,-0.4811 -0.226,-0.7356c0,-0.0046 0,-0.0046 0,-0.0092c-0.111,-0.458 0.115,-0.9345 0.545,-1.1335c0.176,-0.0832 0.352,-0.1665 0.509,-0.2498c0.361,-0.185 0.791,-0.1295 1.097,0.1295c0.226,0.1944 0.449,0.4025 0.661,0.6292c0.218,0.2313 0.421,0.4765 0.602,0.7217c0.166,0.2221 0.176,0.5274 0.032,0.7634c-0.171,0.2868 -0.231,0.5227 -0.129,0.6338c0.18,0.2035 0.805,-0.0833 1.392,-0.6338z" fill="#9489D6" id="svg_9"/>
   <path d="m30.739,8.2031c-0.102,0.0648 -0.384,-0.2036 -0.629,-0.5968c-0.245,-0.3932 -0.366,-0.7633 -0.264,-0.8281c0.102,-0.0648 0.384,0.2036 0.629,0.5968c0.25,0.3932 0.366,0.7633 0.264,0.8281z" fill="#9489D6" id="svg_10"/>
   <path d="m26.913,10.6735c-0.273,0.1712 -0.708,-0.037 -0.976,-0.4626c-0.264,-0.4256 -0.259,-0.9068 0.014,-1.0779c0.273,-0.1712 0.708,0.037 0.976,0.4626c0.264,0.4256 0.254,0.9114 -0.014,1.0779zm-7.878,3.8583c-0.264,-0.4256 -0.704,-0.6292 -0.977,-0.4626c-0.273,0.1712 -0.277,0.6523 -0.014,1.0779c0.264,0.4256 0.704,0.6292 0.977,0.4626c0.277,-0.1711 0.282,-0.6523 0.014,-1.0779zm5.537,-3.3587c-0.277,0.3887 -0.833,0.4673 -1.24,0.1758c-0.407,-0.2914 -0.513,-0.8419 -0.236,-1.2305c0.278,-0.3886 0.833,-0.4673 1.24,-0.1758c0.403,0.2914 0.509,0.8419 0.236,1.2305zm-2.512,3.5253c-0.277,0.3886 -0.833,0.4672 -1.24,0.1758c-0.407,-0.2915 -0.513,-0.842 -0.236,-1.2306c0.278,-0.3886 0.833,-0.4673 1.24,-0.1758c0.403,0.2914 0.509,0.842 0.236,1.2306zm1.753,-0.2961c-0.388,-0.2776 -0.467,-0.8327 -0.175,-1.2399c0.291,-0.4071 0.842,-0.5135 1.23,-0.2359c0.389,0.2776 0.467,0.8327 0.176,1.2398c-0.291,0.4072 -0.847,0.5136 -1.231,0.236zm-3.525,-2.5121c-0.388,-0.2776 -0.467,-0.8327 -0.176,-1.2398c0.292,-0.4071 0.842,-0.5135 1.231,-0.236c0.389,0.2776 0.467,0.8328 0.176,1.2399c-0.292,0.4071 -0.847,0.5135 -1.231,0.2359zm0.5,-3.9416c0.171,0.273 -0.037,0.7079 -0.463,0.9762c-0.425,0.2637 -0.907,0.2591 -1.078,-0.0139c-0.171,-0.2729 0.037,-0.7078 0.463,-0.9761c0.426,-0.2637 0.911,-0.2591 1.078,0.0138zm3.858,7.874c-0.425,0.2636 -0.629,0.7031 -0.462,0.9761c0.171,0.2729 0.652,0.2776 1.077,0.0139c0.426,-0.2637 0.63,-0.7032 0.463,-0.9762c-0.171,-0.2729 -0.652,-0.2775 -1.078,-0.0138zm-0.231,-7.7768c-0.074,0.3146 -0.528,0.4765 -1.013,0.3608c-0.491,-0.111 -0.828,-0.458 -0.754,-0.7726c0.074,-0.3145 0.527,-0.4765 1.013,-0.3608c0.49,0.111 0.828,0.458 0.754,0.7726zm-2.841,8.2949c-0.49,-0.111 -0.943,0.0509 -1.013,0.3608c-0.074,0.3146 0.264,0.657 0.754,0.7726c0.491,0.1111 0.944,-0.0509 1.013,-0.3608c0.07,-0.3192 -0.268,-0.6616 -0.754,-0.7726zm-3.414,-5.8985c0.315,0.074 0.477,0.5274 0.361,1.0131c-0.111,0.4904 -0.458,0.8282 -0.773,0.7541c-0.314,-0.074 -0.476,-0.5274 -0.36,-1.0131c0.111,-0.4858 0.458,-0.8235 0.772,-0.7541zm8.29,2.8452c-0.111,0.4903 0.051,0.9437 0.361,1.0131c0.315,0.074 0.657,-0.2637 0.773,-0.7541c0.111,-0.4904 -0.051,-0.9437 -0.361,-1.0131c-0.315,-0.074 -0.657,0.2637 -0.773,0.7541z" fill="#9489D6" id="svg_11"/>
   <path d="m17.814,4.8345c0.394,-0.2466 0.662,-0.529 0.598,-0.6308c-0.063,-0.1018 -0.434,0.0156 -0.829,0.2622c-0.394,0.2465 -0.662,0.529 -0.598,0.6308c0.063,0.1018 0.435,-0.0156 0.829,-0.2622z" fill="#9489D6" id="svg_12"/>
   <path d="m26.302,4.0254c-0.051,0.111 -0.43,0.0416 -0.856,-0.148c-0.425,-0.1897 -0.726,-0.4349 -0.675,-0.5459c0.051,-0.1111 0.43,-0.0417 0.856,0.148c0.426,0.1897 0.726,0.4349 0.675,0.5459z" fill="#9489D6" id="svg_13"/>
   <path d="m31.447,14.8279c-0.116,-0.0185 -0.148,-0.4071 -0.07,-0.8651c0.079,-0.458 0.241,-0.8142 0.357,-0.7911c0.115,0.0185 0.148,0.4071 0.069,0.8651c-0.079,0.458 -0.241,0.8143 -0.356,0.7911z" fill="#9489D6" id="svg_14"/>
   <path d="m15.218,17.9135c0.102,-0.0647 -0.019,-0.4348 -0.264,-0.8281c-0.245,-0.3932 -0.527,-0.6615 -0.629,-0.5968c-0.102,0.0648 0.018,0.4349 0.264,0.8282c0.245,0.3886 0.527,0.6569 0.629,0.5967z" fill="#9489D6" id="svg_15"/>
   <path d="m13.4,12.0937c0.12,0.0046 0.226,-0.3701 0.24,-0.8374c0.014,-0.4626 -0.074,-0.842 -0.194,-0.8466c-0.12,-0.0046 -0.227,0.3701 -0.241,0.8374c-0.009,0.4626 0.074,0.8419 0.195,0.8466z" fill="#9489D6" id="svg_16"/>
   <path d="m20.867,21.448c0.032,-0.1157 -0.301,-0.31 -0.75,-0.4395c-0.449,-0.1296 -0.837,-0.1388 -0.87,-0.0232c-0.032,0.1157 0.301,0.31 0.75,0.4395c0.449,0.1249 0.837,0.1388 0.87,0.0232z" fill="#9489D6" id="svg_17"/>
   <path d="m28.028,19.9074c-0.083,-0.0879 0.125,-0.4163 0.467,-0.7355c0.338,-0.3193 0.68,-0.5043 0.764,-0.4164c0.083,0.0879 -0.125,0.4164 -0.468,0.7356c-0.342,0.3192 -0.68,0.5042 -0.763,0.4163z" fill="#9489D6" id="svg_18"/>
   <path d="m6.897,21.8974c1.086,-1.0856 1.086,-2.8459 0,-3.9316c-1.085,-1.0856 -2.846,-1.0856 -3.931,0c-1.086,1.0857 -1.086,2.846 0,3.9316c1.085,1.0857 2.846,1.0857 3.931,0z" fill="#9489D6" id="svg_19"/>
  </g>
 </g>
</svg>